<svg xmlns="http://www.w3.org/2000/svg" version="1.1" xmlns:xlink="http://www.w3.org/1999/xlink" xmlns:svgjs="http://svgjs.dev/svgjs" width="1500" height="1500" viewBox="0 0 1500 1500"><rect width="1500" height="1500" fill="#ffffff"></rect><g transform="matrix(0.6666666666666666,0,0,0.6666666666666666,249.39393939393938,574.2085783151427)"><svg viewBox="0 0 396 139" data-background-color="#ffffff" preserveAspectRatio="xMidYMid meet" height="526" width="1500" xmlns="http://www.w3.org/2000/svg" xmlns:xlink="http://www.w3.org/1999/xlink"><g id="tight-bounds" transform="matrix(1,0,0,1,0.2400000000000091,0.18158064884553937)"><svg viewBox="0 0 395.52 138.63661272602553" height="138.63661272602553" width="395.52"><g><svg viewBox="0 0 395.52 138.63661272602553" height="138.63661272602553" width="395.52"><g><svg viewBox="0 0 653.1734950653622 228.9486268160426" height="138.63661272602553" width="395.52"><g transform="matrix(1,0,0,1,257.65349506536216,64.02862058129499)"><svg viewBox="0 0 395.52 100.89138565345263" height="100.89138565345263" width="395.52"><g id="textblocktransform"><svg viewBox="0 0 395.52 100.89138565345263" height="100.89138565345263" width="395.52" id="textblock"><g><svg viewBox="0 0 395.52 60.79582051822203" height="60.79582051822203" width="395.52"><g transform="matrix(1,0,0,1,0,0)"><svg width="395.52" viewBox="5.42 -40.5 347.65999999999997 53.44" height="60.79582051822203" data-palette-color="#528265"><g class="wordmark-text-0" data-fill-palette-color="primary" id="text-0"><path d="M5.42 0L5.42-38.16 25.81-38.16Q29.54-38.16 32.31-37.37 35.08-36.57 36.91-35.18 38.75-33.79 39.64-31.87 40.53-29.96 40.53-27.73L40.53-27.73Q40.53-24.1 38.23-21.36L38.23-21.36Q40.87-19.8 42.16-17.31 43.46-14.82 43.46-11.65L43.46-11.65Q43.46-8.98 42.57-6.84 41.67-4.69 39.86-3.16 38.04-1.64 35.27-0.82 32.5 0 28.74 0L28.74 0 5.42 0ZM13.16-23.51L28.78-23.51Q29.79-23.51 30.74-23.44L30.74-23.44Q32.37-25 32.37-27L32.37-27Q32.37-29.08 30.75-30.21 29.13-31.35 26-31.35L26-31.35 13.16-31.35 13.16-23.51ZM13.16-6.74L28.93-6.74Q32.06-6.74 33.68-8.08 35.3-9.42 35.3-11.87L35.3-11.87Q35.3-14.31 33.68-15.67 32.06-17.04 28.93-17.04L28.93-17.04 13.16-17.04 13.16-6.74ZM49.02-9.08L49.02-9.08Q49.02-11.16 49.92-12.87 50.83-14.58 52.63-15.81 54.44-17.04 57.14-17.71 59.84-18.38 63.43-18.38L63.43-18.38Q66.09-18.38 69.03-17.99 71.97-17.6 75.1-16.8L75.1-16.8Q74.97-18.16 74.27-19.32 73.56-20.48 72.3-21.33 71.04-22.17 69.27-22.63 67.5-23.1 65.26-23.1L65.26-23.1Q64.04-23.1 62.57-22.95 61.11-22.8 59.54-22.51 57.98-22.22 56.46-21.78 54.93-21.34 53.61-20.73L53.61-20.73 51.41-26.66Q53.05-27.25 54.92-27.73 56.78-28.22 58.74-28.58 60.69-28.93 62.64-29.13 64.6-29.32 66.43-29.32L66.43-29.32Q74.51-29.32 78.44-25.2 82.37-21.07 82.37-12.55L82.37-12.55 82.37 0 75.14 0 75.14-2.71Q74.02-2.05 72.69-1.46 71.36-0.88 69.8-0.44 68.23 0 66.44 0.26 64.65 0.51 62.64 0.51L62.64 0.51Q59.27 0.51 56.72-0.22 54.17-0.95 52.46-2.25 50.75-3.54 49.89-5.29 49.02-7.03 49.02-9.08ZM56.64-9.33L56.64-9.33Q56.64-8.62 57-7.97 57.37-7.32 58.18-6.82 58.98-6.32 60.24-6.02 61.5-5.71 63.28-5.71L63.28-5.71Q65.18-5.71 66.97-6.05 68.75-6.4 70.29-6.96 71.82-7.52 73.07-8.25 74.31-8.98 75.14-9.77L75.14-9.77 75.14-11.04Q73.48-11.5 71.86-11.82 70.24-12.13 68.76-12.32 67.28-12.5 65.98-12.57 64.67-12.65 63.69-12.65L63.69-12.65Q61.67-12.65 60.32-12.38 58.98-12.11 58.15-11.66 57.32-11.21 56.98-10.6 56.64-9.99 56.64-9.33ZM93.75 10.99L96.43 4.88Q97.8 5.37 99.21 5.7 100.63 6.03 101.96 6.24 103.29 6.45 104.51 6.53 105.73 6.62 106.68 6.62L106.68 6.62Q109.57 6.62 111.7 5.92 113.84 5.22 115.27 4.05 116.69 2.88 117.4 1.33 118.11-0.22 118.11-1.95L118.11-1.95 118.11-3.2Q117.18-2.56 115.94-1.98 114.69-1.39 113.2-0.95 111.71-0.51 110.04-0.24 108.37 0.02 106.59 0.02L106.59 0.02Q103.05 0.02 100.04-1.04 97.04-2.1 94.84-4.02 92.65-5.93 91.41-8.62 90.18-11.3 90.18-14.58L90.18-14.58Q90.18-17.92 91.47-20.64 92.77-23.36 95.05-25.29 97.33-27.22 100.46-28.27 103.58-29.32 107.25-29.32L107.25-29.32Q108.81-29.32 110.35-29.13 111.88-28.93 113.29-28.59 114.69-28.25 115.93-27.77 117.16-27.29 118.11-26.73L118.11-26.73 118.11-28.81 125.34-28.81 125.34-3.3Q125.34 0.63 124.14 3.66 122.94 6.69 120.64 8.75 118.33 10.82 114.91 11.88 111.49 12.94 107.08 12.94L107.08 12.94Q105.49 12.94 103.78 12.81 102.07 12.67 100.35 12.41 98.63 12.16 96.96 11.8 95.28 11.45 93.75 10.99L93.75 10.99ZM97.77-14.65L97.77-14.65Q97.77-12.92 98.47-11.39 99.16-9.86 100.46-8.73 101.75-7.59 103.58-6.95 105.41-6.3 107.71-6.3L107.71-6.3Q109.2-6.3 110.68-6.58 112.15-6.86 113.51-7.37 114.86-7.89 116.05-8.62 117.23-9.35 118.11-10.25L118.11-10.25 118.11-19.75Q117.01-20.63 115.79-21.24 114.57-21.85 113.3-22.24 112.03-22.63 110.74-22.81 109.44-23 108.22-23L108.22-23Q105.73-23 103.79-22.34 101.85-21.68 100.52-20.54 99.19-19.41 98.48-17.9 97.77-16.38 97.77-14.65ZM140.59-2.08L140.59 11.77 133.37 11.77 133.37-28.81 140.59-28.81 140.59-26.1Q141.55-26.76 142.84-27.34 144.13-27.93 145.62-28.37 147.11-28.81 148.7-29.06 150.29-29.32 151.87-29.32L151.87-29.32Q155.53-29.32 158.6-28.25 161.66-27.17 163.86-25.22 166.06-23.27 167.29-20.54 168.52-17.82 168.52-14.53L168.52-14.53Q168.52-11.08 167.23-8.31 165.93-5.54 163.65-3.58 161.37-1.61 158.23-0.55 155.1 0.51 151.43 0.51L151.43 0.51Q149.87 0.51 148.34 0.32 146.82 0.12 145.41-0.22 144.01-0.56 142.78-1.04 141.55-1.51 140.59-2.08L140.59-2.08ZM140.59-19.04L140.59-9.06Q141.69-8.18 142.91-7.57 144.13-6.96 145.4-6.57 146.67-6.18 147.97-5.99 149.26-5.81 150.48-5.81L150.48-5.81Q152.97-5.81 154.91-6.48 156.85-7.15 158.18-8.33 159.51-9.5 160.22-11.08 160.93-12.67 160.93-14.53L160.93-14.53Q160.93-16.26 160.23-17.8 159.54-19.34 158.23-20.5 156.93-21.66 155.08-22.33 153.24-23 150.94-23L150.94-23Q149.48-23 148.01-22.72 146.55-22.44 145.2-21.92 143.84-21.41 142.66-20.68 141.47-19.95 140.59-19.04L140.59-19.04ZM173.96-9.08L173.96-9.08Q173.96-11.16 174.87-12.87 175.77-14.58 177.58-15.81 179.38-17.04 182.08-17.71 184.78-18.38 188.37-18.38L188.37-18.38Q191.03-18.38 193.97-17.99 196.91-17.6 200.04-16.8L200.04-16.8Q199.92-18.16 199.21-19.32 198.5-20.48 197.24-21.33 195.99-22.17 194.22-22.63 192.45-23.1 190.2-23.1L190.2-23.1Q188.98-23.1 187.51-22.95 186.05-22.8 184.49-22.51 182.92-22.22 181.4-21.78 179.87-21.34 178.55-20.73L178.55-20.73 176.36-26.66Q177.99-27.25 179.86-27.73 181.73-28.22 183.68-28.58 185.63-28.93 187.59-29.13 189.54-29.32 191.37-29.32L191.37-29.32Q199.45-29.32 203.38-25.2 207.31-21.07 207.31-12.55L207.31-12.55 207.31 0 200.09 0 200.09-2.71Q198.96-2.05 197.63-1.46 196.3-0.88 194.74-0.44 193.18 0 191.38 0.26 189.59 0.51 187.59 0.51L187.59 0.51Q184.22 0.51 181.67-0.22 179.12-0.95 177.41-2.25 175.7-3.54 174.83-5.29 173.96-7.03 173.96-9.08ZM181.58-9.33L181.58-9.33Q181.58-8.62 181.95-7.97 182.31-7.32 183.12-6.82 183.93-6.32 185.18-6.02 186.44-5.71 188.22-5.71L188.22-5.71Q190.13-5.71 191.91-6.05 193.69-6.4 195.23-6.96 196.77-7.52 198.01-8.25 199.26-8.98 200.09-9.77L200.09-9.77 200.09-11.04Q198.43-11.5 196.8-11.82 195.18-12.13 193.7-12.32 192.23-12.5 190.92-12.57 189.61-12.65 188.64-12.65L188.64-12.65Q186.61-12.65 185.27-12.38 183.93-12.11 183.1-11.66 182.27-11.21 181.92-10.6 181.58-9.99 181.58-9.33ZM215.12-14.33L215.12-14.33Q215.12-17.5 216.28-20.25 217.44-23 219.68-25.01 221.91-27.03 225.15-28.17 228.38-29.32 232.53-29.32L232.53-29.32Q234.34-29.32 236.17-29.1 238-28.88 239.7-28.48 241.39-28.08 242.88-27.53 244.37-26.98 245.47-26.32L245.47-26.32 242.13-20.87Q239.76-21.97 237.65-22.49 235.53-23 233.36-23L233.36-23Q230.87-23 228.89-22.35 226.92-21.7 225.54-20.54 224.16-19.38 223.44-17.81 222.72-16.24 222.72-14.38L222.72-14.38Q222.72-12.52 223.49-10.95 224.26-9.38 225.66-8.24 227.06-7.1 229.05-6.46 231.04-5.81 233.48-5.81L233.48-5.81Q236.17-5.81 238.55-6.57 240.93-7.32 242.98-8.59L242.98-8.59 246.33-3.15Q245.03-2.37 243.52-1.7 242-1.03 240.28-0.54 238.56-0.05 236.67 0.23 234.78 0.51 232.75 0.51L232.75 0.51Q228.63 0.51 225.35-0.61 222.08-1.73 219.81-3.72 217.54-5.71 216.33-8.42 215.12-11.13 215.12-14.33ZM254.14 0L254.14-40.5 261.36-40.5 261.36-16.58 274.84-28.81 285.9-28.81 270.83-15.33 286.85 0 276.01 0 265.29-10.38 261.36-6.86 261.36 0 254.14 0ZM290.24-14.5L290.24-14.5Q290.24-17.43 291.44-20.1 292.63-22.78 294.88-24.83 297.13-26.88 300.39-28.1 303.64-29.32 307.8-29.32L307.8-29.32Q311.92-29.32 315.23-28.09 318.54-26.86 320.84-24.71 323.15-22.56 324.38-19.65 325.62-16.75 325.62-13.43L325.62-13.43Q325.62-13.01 325.61-12.54 325.59-12.06 325.54-11.67L325.54-11.67 298.3-11.67Q298.76-10.38 299.8-9.3 300.84-8.23 302.4-7.45 303.96-6.67 306.01-6.24 308.06-5.81 310.55-5.81L310.55-5.81Q313.04-5.81 315.51-6.34 317.98-6.86 320.22-7.67L320.22-7.67 322.66-2.15Q321.25-1.49 319.79-0.99 318.34-0.49 316.77-0.16 315.19 0.17 313.47 0.34 311.75 0.51 309.85 0.51L309.85 0.51Q304.99 0.51 301.33-0.66 297.66-1.83 295.2-3.86 292.73-5.88 291.49-8.62 290.24-11.35 290.24-14.5ZM298.3-17.31L317.95-17.31Q317.56-18.51 316.74-19.54 315.92-20.58 314.7-21.35 313.48-22.12 311.87-22.56 310.26-23 308.33-23L308.33-23Q306.28-23 304.6-22.53 302.91-22.07 301.64-21.29 300.37-20.51 299.53-19.48 298.69-18.46 298.3-17.31L298.3-17.31ZM333.38 0L333.38-28.81 340.61-28.81 340.61-24.66Q343-26.44 345.66-27.73 348.32-29.03 350.96-29.71L350.96-29.71 353.08-23.1Q348.91-22.68 345.74-21.23 342.58-19.78 340.61-17.14L340.61-17.14 340.61 0 333.38 0Z" fill="#528265" data-fill-palette-color="primary"></path></g></svg></g></svg></g><g transform="matrix(1,0,0,1,0,75.14825464288181)"><svg viewBox="0 0 232.209792 25.743131010570824" height="25.743131010570824" width="232.209792"><g transform="matrix(1,0,0,1,0,0)"><svg width="232.209792" viewBox="1.22 -31.88 369.47999999999996 40.96" height="25.743131010570824" data-palette-color="#528265"><path d="M1.22-28.52L5.66-27.49 5.66-2.95 1.59-1.81 1.39 0 14.58 0 14.82-1.95 10.4-2.78 10.4-27.59 14.53-28.52 14.77-30.37 1.49-30.37 1.22-28.52ZM18.45-18.63L18.36-6.35Q18.33-2.54 19.71-0.99 21.09 0.56 23.56 0.56L23.56 0.56Q25.61 0.56 27.32-0.39 29.03-1.34 30.17-3.03L30.17-3.03 29.66-4.35Q29.66-4.32 29.09-3.96 28.51-3.59 27.73-3.28 26.95-2.98 26.14-2.98L26.14-2.98Q24.85-2.98 24.07-3.42 23.29-3.86 22.92-4.91 22.56-5.96 22.56-7.79L22.56-7.79 22.63-18.58 29.37-18.58 29.59-20.73 22.68-20.73 22.68-26.54 21.38-26.54Q20.07-24.73 18.45-22.95 16.84-21.17 15.35-19.95L15.35-19.95 15.35-18.63 18.45-18.63ZM31.73-31.79L33.05-21.78 35.32-22.05 36.2-31.4 31.73-31.79ZM45.87 0.83Q47.75 0.83 49.49 0.02 51.24-0.78 52.31-2.21 53.39-3.64 53.39-5.37L53.39-5.37Q53.39-7.01 52.53-8.26 51.68-9.52 50.47-10.38 49.26-11.23 47.31-12.3L47.31-12.3Q45.7-13.21 44.79-13.82 43.89-14.43 43.28-15.22 42.67-16.02 42.67-16.99L42.67-16.99Q42.67-18.21 43.41-19.07 44.16-19.92 45.4-19.92L45.4-19.92Q46.82-19.92 47.8-18.54 48.77-17.16 49.21-14.38L49.21-14.38Q50.8-14.48 51.71-15.36 52.63-16.24 52.63-17.63L52.63-17.63Q52.63-18.85 51.88-19.84 51.14-20.83 49.77-21.4 48.41-21.97 46.65-21.97L46.65-21.97Q44.33-21.97 42.68-20.98 41.03-20 40.2-18.51 39.37-17.02 39.37-15.5L39.37-15.5Q39.37-13.75 40.26-12.4 41.15-11.06 42.41-10.14 43.67-9.23 45.67-8.08L45.67-8.08Q47.14-7.25 47.95-6.7 48.77-6.15 49.31-5.48 49.85-4.81 49.85-4.03L49.85-4.03Q49.85-2.76 48.94-2.16 48.04-1.56 46.62-1.56L46.62-1.56Q45.11-1.56 43.84-2.77 42.57-3.98 41.76-6.37L41.76-6.37Q40.4-6.27 39.59-5.3 38.79-4.32 38.79-2.95L38.79-2.95Q38.79-1.98 39.67-1.1 40.54-0.22 42.16 0.31 43.77 0.83 45.87 0.83L45.87 0.83ZM62.59-30.37L62.78-22.51 65-22.19 66.3-28.13 73.5-28.13 73.5-2.95 69.37-1.81 69.2 0 82.36 0 82.7-1.95 78.19-2.78 78.19-28.13 85.63-28.13 86.56-22.49 88.88-22.12 89.71-30.37 62.59-30.37ZM96.05-26.12Q96.84-26.12 97.53-26.53 98.23-26.93 98.63-27.61 99.03-28.3 99.03-29.1L99.03-29.1Q99.03-30.27 98.15-31.08 97.28-31.88 96.05-31.88L96.05-31.88Q94.88-31.88 94.02-31.09 93.15-30.3 93.15-29.15L93.15-29.15Q93.15-28.34 93.54-27.65 93.93-26.95 94.6-26.54 95.27-26.12 96.05-26.12L96.05-26.12ZM90.24 0L101.96 0 102.23-1.95 98.32-2.83 98.32-21 97.71-21.61 90.85-21.04 90.54-19.19 94.22-17.85 94.22-2.83 90.54-1.93 90.24 0ZM114.8 0L115.07-1.93 111.58-2.78 111.58-16.43Q112.48-17.46 113.75-18.01 115.02-18.55 116.39-18.55L116.39-18.55Q117.56-18.55 118.51-18.02 119.46-17.48 120.01-16.5 120.56-15.53 120.56-14.28L120.56-14.28 120.56-2.78 117.37-1.81 117.1 0 127.91 0 128.16-1.93 124.54-2.78 124.54-16.11Q125.62-17.26 126.68-17.91 127.74-18.55 129.21-18.55L129.21-18.55Q131.11-18.55 132.21-17.33 133.31-16.11 133.31-14.28L133.31-14.28 133.31-2.76 130.26-1.78 130.09 0 140.46 0 140.78-1.93 137.41-2.81 137.41-14.87Q137.41-21.68 131.65-21.68L131.65-21.68Q129.47-21.68 127.61-20.59 125.74-19.51 124.45-17.85L124.45-17.85 124.15-17.85Q123.62-19.92 122.11-20.9 120.61-21.88 118.76-21.88L118.76-21.88Q116.61-21.88 114.67-20.78 112.73-19.68 111.43-18.07L111.43-18.07 111.21-18.07 111.65-21.14 111.21-21.66 103.79-20.63 103.55-18.8 107.45-17.55 107.45-2.78 103.79-1.81 103.55 0 114.8 0ZM151.64 0.73Q154.03 0.73 156.12-0.13 158.21-1 159.67-2.54L159.67-2.54 159.16-3.83Q157.96-3.2 157.06-2.91 156.16-2.61 155.47-2.55 154.79-2.49 153.62-2.49L153.62-2.49Q151.47-2.49 149.97-3.72 148.47-4.96 147.69-6.88 146.9-8.81 146.81-10.86L146.81-10.86 158.62-11.01Q158.77-11.65 158.89-12.63 159.01-13.62 159.01-14.18L159.01-14.18Q159.01-16.67 158.15-18.42 157.28-20.17 155.79-21.06 154.3-21.95 152.49-21.95L152.49-21.95Q150.05-21.95 147.73-20.56 145.41-19.17 143.94-16.55 142.46-13.94 142.46-10.45L142.46-10.45Q142.46-6.91 143.75-4.37 145.05-1.83 147.16-0.55 149.27 0.73 151.64 0.73L151.64 0.73ZM151.3-19.56Q154.67-19.56 154.67-15.01L154.67-15.01Q154.67-14.65 154.63-14.12 154.59-13.6 154.52-13.33L154.52-13.33 146.86-12.77Q146.98-15.01 147.65-16.54 148.32-18.07 149.3-18.81 150.27-19.56 151.3-19.56L151.3-19.56ZM168.75-30.37L168.94-22.51 171.17-22.19 172.46-28.13 179.66-28.13 179.66-2.95 175.54-1.81 175.37 0 188.52 0 188.87-1.95 184.35-2.78 184.35-28.13 191.8-28.13 192.72-22.49 195.04-22.12 195.87-30.37 168.75-30.37ZM206.81 0.66Q209.64 0.66 211.98-0.78 214.33-2.22 215.68-4.83 217.04-7.45 217.04-10.77L217.04-10.77Q217.04-14.11 215.88-16.66 214.72-19.21 212.53-20.63 210.35-22.05 207.39-22.05L207.39-22.05Q204.61-22.05 202.18-20.65 199.75-19.26 198.26-16.61 196.77-13.96 196.77-10.4L196.77-10.4Q196.77-7.23 197.96-4.72 199.14-2.22 201.4-0.78 203.66 0.66 206.81 0.66L206.81 0.66ZM206.37-19.48Q208.54-19.48 209.97-17.88 211.4-16.28 212.05-13.84 212.69-11.4 212.69-8.76L212.69-8.76Q212.69-6.96 212.13-5.35 211.57-3.74 210.42-2.72 209.27-1.71 207.64-1.71L207.64-1.71Q205.37-1.71 203.9-3.2 202.44-4.69 201.78-7.06 201.12-9.42 201.12-12.13L201.12-12.13Q201.12-14.14 201.68-15.81 202.24-17.48 203.43-18.48 204.61-19.48 206.37-19.48L206.37-19.48ZM226.97-28.52L231.41-27.49 231.41-2.95 227.34-1.81 227.14 0 251.92 0 252.65-7.64 250.63-7.96 248.23-2.34 236.15-2.34 236.15-14.23 242.84-14.23 243.67-9.96 245.74-10.28 246.57-19.78 244.25-19.43 243.23-16.5 236.15-16.5 236.15-28.13 247.65-28.13 248.65-22.88 250.77-22.56 251.53-30.37 227.24-30.37 226.97-28.52ZM252.5 0L261.98 0 262.22-1.81 258.75-2.78 263.17-8.57 267.52-2.78 264.39-1.78 264.08 0 274.94 0 275.16-1.81 272.4-2.78 266.15-11.4 271.77-18.73 274.31-19.7 274.62-21.53 265.47-21.53 265.13-19.68 268.47-18.65 264.39-13.4 260.59-18.73 263.39-19.7 263.71-21.53 253.11-21.53 252.87-19.68 255.75-18.65 261.34-10.64 255.36-2.78 252.75-1.78 252.5 0ZM287.07 9.08L287.36 7.13 283.56 6.27 283.56-16.26Q284.53-17.29 285.84-18.02 287.15-18.75 288.56-18.75L288.56-18.75Q290.88-18.75 292.05-16.52 293.22-14.28 293.22-9.91L293.22-9.91Q293.22-6.37 291.91-4.27 290.59-2.17 288.12-2.17L288.12-2.17Q286.68-2.17 285.95-2.28 285.22-2.39 284.39-2.71L284.39-2.71 284.53 0.24Q285.75 0.46 286.83 0.46L286.83 0.46Q289.93 0.46 292.41-1.05 294.88-2.56 296.29-5.27 297.69-7.98 297.69-11.4L297.69-11.4Q297.69-14.99 296.74-17.35 295.79-19.7 294.13-20.83 292.47-21.95 290.29-21.95L290.29-21.95Q288.15-21.95 286.44-20.75 284.73-19.56 283.56-17.92L283.56-17.92 283.39-17.92 283.73-21.07 283.21-21.53 276.11-20.63 275.82-18.75 279.58-17.63 279.58 6.25 275.84 7.18 275.69 9.08 287.07 9.08ZM299.25 0L310.92 0 311.21-1.95 307.33-2.83 307.33-31.13 306.72-31.71 299.69-31.18 299.4-29.32 303.26-28 303.26-2.83 299.52-1.93 299.25 0ZM322.76 0.66Q325.59 0.66 327.94-0.78 330.28-2.22 331.63-4.83 332.99-7.45 332.99-10.77L332.99-10.77Q332.99-14.11 331.83-16.66 330.67-19.21 328.49-20.63 326.3-22.05 323.35-22.05L323.35-22.05Q320.56-22.05 318.13-20.65 315.7-19.26 314.22-16.61 312.73-13.96 312.73-10.4L312.73-10.4Q312.73-7.23 313.91-4.72 315.09-2.22 317.35-0.78 319.61 0.66 322.76 0.66L322.76 0.66ZM322.32-19.48Q324.49-19.48 325.92-17.88 327.35-16.28 328-13.84 328.64-11.4 328.64-8.76L328.64-8.76Q328.64-6.96 328.08-5.35 327.52-3.74 326.37-2.72 325.23-1.71 323.59-1.71L323.59-1.71Q321.32-1.71 319.85-3.2 318.39-4.69 317.73-7.06 317.07-9.42 317.07-12.13L317.07-12.13Q317.07-14.14 317.63-15.81 318.19-17.48 319.38-18.48 320.56-19.48 322.32-19.48L322.32-19.48ZM348.71 0L348.95-2.12 343.27-2.95 343.27-12.3Q343.51-14.04 344.23-15.23 344.95-16.43 345.83-17.03 346.71-17.63 347.44-17.63L347.44-17.63Q348.15-17.63 348.93-17.37 349.71-17.11 350.42-16.67L350.42-16.67Q351.81-17.85 351.81-19.38L351.81-19.38Q351.81-20.48 351.05-21.3 350.3-22.12 349.1-22.12L349.1-22.12Q348-22.12 346.88-21.37 345.76-20.63 344.75-19.14 343.75-17.65 343.12-15.53L343.12-15.53 342.66-15.53 343.14-21.14 342.58-21.73 335.58-20.83 335.23-18.97 339.21-17.77 339.21-2.78 335.48-1.81 335.23 0 348.71 0ZM362.67 0.73Q365.06 0.73 367.15-0.13 369.24-1 370.7-2.54L370.7-2.54 370.19-3.83Q369-3.2 368.09-2.91 367.19-2.61 366.51-2.55 365.82-2.49 364.65-2.49L364.65-2.49Q362.5-2.49 361-3.72 359.5-4.96 358.72-6.88 357.94-8.81 357.84-10.86L357.84-10.86 369.65-11.01Q369.8-11.65 369.92-12.63 370.05-13.62 370.05-14.18L370.05-14.18Q370.05-16.67 369.18-18.42 368.31-20.17 366.82-21.06 365.33-21.95 363.53-21.95L363.53-21.95Q361.09-21.95 358.77-20.56 356.45-19.17 354.97-16.55 353.49-13.94 353.49-10.45L353.49-10.45Q353.49-6.91 354.79-4.37 356.08-1.83 358.19-0.55 360.3 0.73 362.67 0.73L362.67 0.73ZM362.33-19.56Q365.7-19.56 365.7-15.01L365.7-15.01Q365.7-14.65 365.66-14.12 365.63-13.6 365.55-13.33L365.55-13.33 357.89-12.77Q358.01-15.01 358.68-16.54 359.35-18.07 360.33-18.81 361.31-19.56 362.33-19.56L362.33-19.56Z" opacity="1" transform="matrix(1,0,0,1,0,0)" fill="#528265" class="slogan-text-1" data-fill-palette-color="secondary" id="text-1"></path></svg></g></svg></g></svg></g></svg></g><g><svg viewBox="0 0 228.9486268160426 228.9486268160426" height="228.9486268160426" width="228.9486268160426"><g><svg></svg></g><g id="icon-0"><svg viewBox="0 0 228.9486268160426 228.9486268160426" height="228.9486268160426" width="228.9486268160426"><g><path d="M0 114.474c0-63.222 51.252-114.474 114.474-114.474 63.222 0 114.474 51.252 114.475 114.474 0 63.222-51.252 114.474-114.475 114.475-63.222 0-114.474-51.252-114.474-114.475zM114.474 223.466c60.194 0 108.992-48.797 108.992-108.992 0-60.194-48.797-108.992-108.992-108.991-60.194 0-108.992 48.797-108.991 108.991 0 60.194 48.797 108.992 108.991 108.992z" data-fill-palette-color="accent" fill="#528265" stroke="transparent"></path></g><g transform="matrix(1,0,0,1,46.744089530353165,48.35407692809541)"><svg viewBox="0 0 135.46044775533628 132.2404729598518" height="132.2404729598518" width="135.46044775533628"><g><svg xmlns="http://www.w3.org/2000/svg" xmlns:xlink="http://www.w3.org/1999/xlink" version="1.1" x="0" y="0" viewBox="0.14680273525781917 1.7369155795074276 90.3845533233369 88.23605914348651" style="enable-background:new 0 0 91 91;" xml:space="preserve" height="132.2404729598518" width="135.46044775533628" class="icon-cg-0" data-fill-palette-color="accent" id="cg-0"><g fill="#528265" data-fill-palette-color="accent"><path d="M59.7 11c1.6-0.5 2.8-1 4.5-0.3 1.3 0.5 2.3 1.7 3.2 2.8 0.6 0.7 1.7 0.5 1.8-0.5 0.2-3.8-3-6.1-6.4-6.4-0.2-0.5-0.3-1-0.7-1.4-0.6-0.8-1.3-1.5-2.2-2-2-1.4-4.4-1.7-6.7-1.3-4.1 0.6-7.9 3.4-8.7 7.4-0.3 0-0.6 0.1-0.9 0.2-4.3 0.9-7.2 4.8-7.6 9.1-0.2 2.5 3.8 2.5 3.9 0 0.3-7 9.7-6.4 12.7-4 0.4 0.4 1-0.4 0.9-0.9-0.6-2.4-2.7-3.7-5-4.2 0.9-2.6 3-4 5.9-4.6 1.7-0.3 3.4 0 4.9 1 0.4 0.3 0.9 0.6 1.3 1C59.6 7 58.7 7.4 58 8 56.5 9.2 58.1 11.5 59.7 11z" fill="#528265" data-fill-palette-color="accent"></path><path d="M14.4 35.1c-2.7 3.7-4.4 8.2-5.4 12.7-0.8 3.6-1.1 7.3-0.9 11 0.2 3.8 0.6 8.2 1.8 11.8 0.2 0.8 1.1 1.5 2.3 0.5 8-5.4 17.3-9.8 26.9-11.7 0.1 0.1 4.8 1.8 7.6 11.7 0.7 2.7 0 5.5-0.8 8.1-0.7 2.4-2.3 4.5-2.7 7-0.4 2.3 2.2 4.1 4 2.3 4.4-4.2 4.7-13.4 3.4-18.9-0.9-4.1-3.1-8.3-6.5-11 1.5-0.2 3-0.2 4.6-0.3 3.3-0.3 4.5 1.5 5.4 2.3 1.5 1.4 2.3 2.9 3.3 4.6 1.2 2 4.7 0.7 3.9-1.7-0.5-1.6-1.5-3.2-2.8-4.4 3.7 0.7 7.4 1.7 10.9 3.1 5.1 6.9 8.8 15.5 5 23.9-1.6 3.5 3.8 5.6 4.7 2 1.8-7.3 1.1-16.5-3.3-22.9 3.7 2 7.1 4.4 10.2 7.1 2.5 2.2 6.2-1.5 3.7-3.7-6-5.2-12.9-9.2-20.3-11.7 0-0.3 0-9.7 0-12.8 0-0.1 0-0.2 0-0.3 0.7 0.5 1.4 1.1 2.1 1.6 1.2 0.9 2.6 2.1 4 2.6 2 0.7 3.1-1.9 1.9-3.3-0.9-1-2.3-1.6-3.3-2.4-1.7-1.2-3.3-2.4-4.8-3.7 0-1.5-0.1-3-0.1-4.5 0.8 0.6 1.6 1.2 2.4 1.8 1.2 0.9 2.6 2.1 4 2.6 2 0.7 3.1-1.9 1.9-3.3-0.9-1-2.3-1.6-3.3-2.4-1.7-1.2-3.4-2.4-5-3.8 0-1.3 0-2.7-0.2-3.9 0.9 0.7 1.7 1.3 2.6 2 1.2 0.9 2.6 2.1 4 2.6 2 0.7 3.1-1.9 1.9-3.3-0.9-1-2.3-1.6-3.3-2.4-2-1.4-3.9-2.8-5.7-4.4-0.7-0.7-2-0.8-2.7 0-1.9 2.2-4 4-6.3 5.7-1.4 1.1-2.8 1.7-3 3.6 0 0.2 0.1 0.5 0.4 0.6 2.5 1.3 6-1.4 8.7-4-0.1 1-0.1 2.1 0 3.2-1.8 2-3.8 3.7-6 5.4-1.4 1.1-2.8 1.7-3 3.6 0 0.2 0.1 0.5 0.4 0.6 2.5 1.3 6-1.5 8.7-4.1 0 1.3 0 2.6-0.1 3.9-1.9 2-3.8 3.7-6 5.4-1.4 1.1-2.8 1.7-3 3.6 0 0.2 0.1 0.5 0.4 0.6 2.4 1.2 5.9-1.3 8.5-3.9 0 0 0 0.1 0 0.1C65.2 47.4 65 55 65 55.8c-5.1-1.3-10.5-2-15.9-1.9-3.4 0.1-6.9 0.4-10.3 1.1 0-0.4-1.5-5.2-2.1-7.3-1.6-5.7-1.8-11.4 0.5-17 0 0 0 0 0 0 3.9 0 7.8 0.2 11.8 0.7 2.4 0.3 2.4-3.6 0-3.8-9.3-0.8-18.3-0.8-27.3 1.5-1.2 0.3-2.4 0.6-3.7 1 0.1-3.9-0.2-7.8-0.3-11.7 0.8 0.6 4.9 3.9 6.4 4.4 2 0.7 3.1-1.9 1.9-3.3-0.9-1-6.7-4.8-8.3-6.1 0-1.4 0-2.9-0.2-4.2 0.8 0.7 5.1 4 6.6 4.5 2 0.7 3.1-1.9 1.9-3.3-0.9-1-7.3-5.2-9-6.8-0.7-0.7-2-0.8-2.7 0-1.9 2.2-4 4-6.3 5.7-1.4 1.1-2.8 1.7-3 3.6 0 0.2 0.1 0.5 0.4 0.6 2.4 1.2 5.6-1.2 8.3-3.6-0.1 1.2-0.2 2.5-0.2 3.7-1.7 1.8-3.5 3.3-5.5 4.8-1.4 1.1-2.8 1.7-3 3.6 0 0.2 0.1 0.5 0.4 0.6 2.3 1.2 5.5-1.1 8.1-3.5-0.1 4 0.3 12.3 0.3 12.4C8.3 33.8 3.1 37 0.2 41.8c-0.2 0.4 0.2 0.8 0.6 0.6 3.7-1.8 7-4.2 10.7-6C12.5 36 13.4 35.6 14.4 35.1zM69.3 57C69.3 57 69.3 57 69.3 57 69.3 57.1 69.3 57.1 69.3 57 69.3 57 69.3 57 69.3 57zM23.6 32.1c2.9-0.7 5.8-1.1 8.7-1.3-1.8 5.1-1.8 10.7-0.5 15.9 0.6 2.5 3.5 8.4 3.9 8.9C27 57.8 18.8 62 12.2 68.1c-0.2-2.7-0.8-5.4-1-8.1-0.3-3.7-0.1-7.3 0.6-10.9 1.3-6 3.8-12 8.7-15.9 0.1-0.1 0.2-0.2 0.3-0.3C21.8 32.6 22.7 32.3 23.6 32.1z" fill="#528265" data-fill-palette-color="accent"></path><path d="M20.7 41.4c-0.4 3 4 3.2 3.8 0.5-0.2-2.5-0.3-5.1 0-7.6 0.1-0.6-0.8-0.8-1.1-0.3C22.1 36.4 21.1 38.7 20.7 41.4z" fill="#528265" data-fill-palette-color="accent"></path><path d="M22 46.6c-0.8 2.6-1.2 5.1-0.9 7.9 0.3 2.9 4.7 2.1 3.8-0.5-0.8-2.3-1.5-4.8-1.7-7.2C23.1 46.2 22.2 46 22 46.6z" fill="#528265" data-fill-palette-color="accent"></path><path d="M62.6 68.6c-0.6-0.6-1.9 0-1.5 0.9 0.5 1.4 0.8 2.9 1.1 4.3 0.3 1.5 0.2 3 1.3 4.2 0.9 1 2.3 0.4 2.7-0.7 0.5-1.5-0.3-3.4-0.8-4.9C64.7 70.9 63.8 69.7 62.6 68.6z" fill="#528265" data-fill-palette-color="accent"></path><path d="M66.2 82.5c-0.4-1.1-1.9-1.2-2.3 0-0.2 0.7-1.5 4.6-1.5 4.8-0.3 1.1 0.4 2.2 1.4 2.5 1.1 0.3 2.2-0.4 2.5-1.4C66.5 88.1 66.8 84.1 66.2 82.5z" fill="#528265" data-fill-palette-color="accent"></path></g></svg></g></svg></g></svg></g></svg></g></svg></g></svg></g><defs></defs></svg><rect width="395.52" height="138.63661272602553" fill="none" stroke="none" visibility="hidden"></rect></g></svg></g></svg>